<svg width="60" height="72" viewBox="0 0 60 72" fill="none" xmlns="http://www.w3.org/2000/svg">
<path d="M39.9294 13.6909C35.4743 12.1283 30.7134 11.6392 26.0336 12.2634C21.3539 12.8875 16.8876 14.6074 12.9978 17.2831C9.10808 19.9587 5.90473 23.5147 3.64828 27.6617C1.39183 31.8087 0.145991 36.4298 0.0120716 41.149L14.5799 41.5624C14.6488 39.1357 15.2894 36.7596 16.4497 34.6271C17.61 32.4947 19.2572 30.6662 21.2573 29.2903C23.2575 27.9145 25.5541 27.0301 27.9605 26.7092C30.3668 26.3882 32.815 26.6397 35.1058 27.4432L39.9294 13.6909Z" fill="#E4E8EF"/>
<path d="M0.243027 38.1892C-0.485411 43.8772 0.43163 49.6548 2.88553 54.8377C5.33943 60.0205 9.22737 64.3916 14.0888 67.4329C18.9503 70.4743 24.5816 72.0587 30.3158 71.9983C36.0499 71.938 41.6466 70.2355 46.443 67.0924C51.2393 63.9494 55.0344 59.4975 57.3787 54.2641C59.7229 49.0307 60.5182 43.2351 59.6702 37.5636C58.8222 31.8922 56.3665 26.5827 52.5939 22.2639C48.8214 17.9451 43.8901 14.798 38.3842 13.1954L34.3112 27.1884C37.1424 28.0125 39.6781 29.6308 41.618 31.8515C43.5579 34.0723 44.8206 36.8025 45.2567 39.7188C45.6927 42.6351 45.2838 45.6152 44.0784 48.3063C42.8729 50.9974 40.9215 53.2865 38.4551 54.9027C35.9888 56.5189 33.1109 57.3944 30.1624 57.4254C27.2138 57.4564 24.3182 56.6418 21.8183 55.0778C19.3185 53.5139 17.3193 51.2663 16.0575 48.6012C14.7957 45.9361 14.3241 42.9652 14.6987 40.0404L0.243027 38.1892Z" fill="#475BE8"/>
</svg>
