<svg width="16" height="16" viewBox="0 0 16 16" fill="none" xmlns="http://www.w3.org/2000/svg">
<path d="M10.2575 6.23975C10.1124 6.2399 9.97332 6.2962 9.87078 6.39627C9.76823 6.49634 9.71063 6.632 9.71063 6.77344C9.71063 7.19777 9.53771 7.60472 9.2299 7.90477C8.9221 8.20481 8.50463 8.37338 8.06933 8.37338C7.63403 8.37338 7.21656 8.20481 6.90876 7.90477C6.60095 7.60472 6.42803 7.19777 6.42803 6.77344C6.43043 6.70193 6.41806 6.63067 6.39164 6.56391C6.36522 6.49715 6.3253 6.43625 6.27425 6.38483C6.2232 6.33341 6.16207 6.29252 6.09448 6.2646C6.02689 6.23668 5.95424 6.22229 5.88083 6.22229C5.80743 6.22229 5.73477 6.23668 5.66719 6.2646C5.5996 6.29252 5.53847 6.33341 5.48742 6.38483C5.43637 6.43625 5.39645 6.49715 5.37003 6.56391C5.34361 6.63067 5.33124 6.70193 5.33364 6.77344C5.33364 7.48071 5.62186 8.15901 6.1349 8.65912C6.64794 9.15923 7.34378 9.44019 8.06933 9.44019C8.79488 9.44019 9.49072 9.15923 10.0038 8.65912C10.5168 8.15901 10.805 7.48071 10.805 6.77344C10.805 6.6319 10.7473 6.49615 10.6447 6.39607C10.542 6.29598 10.4027 6.23975 10.2575 6.23975Z" fill="#808191"/>
<path d="M15.9909 15.1747L14.5038 4.41263C14.45 4.04211 14.1275 3.77263 13.7333 3.77263H11.225V3.03158C11.225 1.36421 9.77372 0 7.99996 0C6.22619 0 4.77492 1.36421 4.77492 3.03158V3.77263H2.26657C1.87239 3.77263 1.53197 4.04211 1.49614 4.41263L0.00904315 15.1747C-0.0267905 15.3768 0.0448768 15.5958 0.206128 15.7474C0.349463 15.8989 0.564465 16 0.797384 16H15.2204C15.4534 16 15.6684 15.9158 15.8117 15.7474C15.955 15.5958 16.0267 15.3768 15.9909 15.1747ZM6.35161 3.03158C6.35161 2.17263 7.0862 1.48211 7.99996 1.48211C8.91372 1.48211 9.64831 2.17263 9.64831 3.03158V3.77263H6.35161V3.03158ZM1.67531 14.5179L2.94741 5.23789H13.0346L14.3067 14.5179H1.67531Z" fill="#808191"/>
</svg>
