<svg width="17" height="16" viewBox="0 0 17 16" fill="none" xmlns="http://www.w3.org/2000/svg">
<path d="M10.4793 6.23975C10.3311 6.2399 10.1889 6.2962 10.0842 6.39627C9.97941 6.49634 9.92057 6.632 9.92057 6.77344C9.92057 7.19777 9.74391 7.60472 9.42945 7.90477C9.11499 8.20481 8.68849 8.37338 8.24378 8.37338C7.79907 8.37338 7.37257 8.20481 7.05811 7.90477C6.74366 7.60472 6.567 7.19777 6.567 6.77344C6.56945 6.70193 6.5568 6.63067 6.52982 6.56391C6.50283 6.49715 6.46204 6.43625 6.40989 6.38483C6.35774 6.33341 6.29528 6.29252 6.22623 6.2646C6.15719 6.23668 6.08296 6.22229 6.00797 6.22229C5.93297 6.22229 5.85875 6.23668 5.7897 6.2646C5.72065 6.29252 5.6582 6.33341 5.60604 6.38483C5.55389 6.43625 5.51311 6.49715 5.48612 6.56391C5.45913 6.63067 5.44648 6.70193 5.44894 6.77344C5.44894 7.48071 5.74339 8.15901 6.26753 8.65912C6.79166 9.15923 7.50254 9.44019 8.24378 9.44019C8.98502 9.44019 9.6959 9.15923 10.22 8.65912C10.7442 8.15901 11.0386 7.48071 11.0386 6.77344C11.0386 6.6319 10.9797 6.49615 10.8748 6.39607C10.7699 6.29598 10.6276 6.23975 10.4793 6.23975Z" fill="#FCFDFF"/>
<path d="M16.3366 15.1747L14.8174 4.41263C14.7625 4.04211 14.433 3.77263 14.0303 3.77263H11.4677V3.03158C11.4677 1.36421 9.98505 0 8.17293 0C6.36081 0 4.87817 1.36421 4.87817 3.03158V3.77263H2.31557C1.91288 3.77263 1.5651 4.04211 1.52849 4.41263L0.00923868 15.1747C-0.0273698 15.3768 0.0458471 15.5958 0.210585 15.7474C0.357019 15.8989 0.57667 16 0.814625 16H15.5495C15.7875 16 16.0071 15.9158 16.1536 15.7474C16.3 15.5958 16.3732 15.3768 16.3366 15.1747ZM6.48894 3.03158C6.48894 2.17263 7.23941 1.48211 8.17293 1.48211C9.10644 1.48211 9.85692 2.17263 9.85692 3.03158V3.77263H6.48894V3.03158ZM1.71153 14.5179L3.01113 5.23789H13.3164L14.616 14.5179H1.71153Z" fill="#FCFDFF"/>
</svg>
