<svg width="289" height="53" viewBox="0 0 289 53" fill="none" xmlns="http://www.w3.org/2000/svg">
<g filter="url(#filter0_d_82_6312)">
<path d="M4 20C4 8.9543 12.9543 0 24 0H265C276.046 0 285 8.95431 285 20V25C285 36.0457 276.046 45 265 45H24C12.9543 45 4 36.0457 4 25V20Z" fill="#FFFEFE"/>
<path d="M4.5 20C4.5 9.23045 13.2304 0.5 24 0.5H265C275.77 0.5 284.5 9.23045 284.5 20V25C284.5 35.7696 275.77 44.5 265 44.5H24C13.2304 44.5 4.5 35.7696 4.5 25V20Z" stroke="black"/>
</g>
<defs>
<filter id="filter0_d_82_6312" x="0" y="0" width="289" height="53" filterUnits="userSpaceOnUse" color-interpolation-filters="sRGB">
<feFlood flood-opacity="0" result="BackgroundImageFix"/>
<feColorMatrix in="SourceAlpha" type="matrix" values="0 0 0 0 0 0 0 0 0 0 0 0 0 0 0 0 0 0 127 0" result="hardAlpha"/>
<feOffset dy="4"/>
<feGaussianBlur stdDeviation="2"/>
<feComposite in2="hardAlpha" operator="out"/>
<feColorMatrix type="matrix" values="0 0 0 0 0 0 0 0 0 0 0 0 0 0 0 0 0 0 0.25 0"/>
<feBlend mode="normal" in2="BackgroundImageFix" result="effect1_dropShadow_82_6312"/>
<feBlend mode="normal" in="SourceGraphic" in2="effect1_dropShadow_82_6312" result="shape"/>
</filter>
</defs>
</svg>
