<svg width="21" height="20" viewBox="0 0 21 20" fill="none" xmlns="http://www.w3.org/2000/svg">
<path fill-rule="evenodd" clip-rule="evenodd" d="M11.8245 15.1329C11.8836 15.1329 11.9415 15.1529 11.9906 15.1905C12.0398 15.2281 12.0781 15.2815 12.1008 15.3439C12.1234 15.4064 12.1293 15.4752 12.1178 15.5415C12.1063 15.6078 12.0778 15.6688 12.036 15.7166C11.9941 15.7644 11.9408 15.797 11.8828 15.8102C11.8248 15.8233 11.7647 15.8166 11.71 15.7907C11.6554 15.7648 11.6087 15.721 11.5758 15.6648C11.5429 15.6085 11.5254 15.5424 11.5254 15.4748C11.5254 15.3841 11.5569 15.2971 11.613 15.233C11.6691 15.1689 11.7452 15.1329 11.8245 15.1329ZM3.77858 4.46268H0.587905V5.04885C0.5888 5.48592 0.74071 5.90488 1.01055 6.21449C1.28039 6.5241 1.6463 6.69926 2.02858 6.70184C2.42506 6.70184 3.09499 6.51622 3.35646 6.21532C3.49091 6.06135 3.59742 5.87851 3.66986 5.67732C3.7423 5.47613 3.77925 5.26056 3.77858 5.04299V4.45682V4.46268ZM0.734878 3.87652H3.86916L4.38185 0.568583H1.98927L0.734878 3.87261V3.87652ZM12.72 0.564675L12.937 3.87261H16.4422L15.8508 0.564675H12.72ZM12.2517 3.87261L12.0364 0.564675H8.96022L8.7466 3.87261H12.2517ZM8.06129 3.87261L8.27321 0.564675H5.06886L4.55617 3.87261H8.06129ZM16.5327 0.564675L17.1223 3.87261H20.2481L18.8963 0.564675H16.5327ZM17.2163 4.47245V5.05862C17.2157 5.27619 17.2526 5.49176 17.325 5.69295C17.3975 5.89414 17.504 6.07698 17.6384 6.23095C17.8999 6.53185 18.5698 6.71747 18.9663 6.71747C19.3486 6.71489 19.7145 6.53973 19.9844 6.23012C20.2542 5.92052 20.4061 5.50155 20.407 5.06448V4.47831L17.2163 4.47245ZM12.9883 4.46268V5.04885C12.9876 5.2666 13.0247 5.48235 13.0974 5.6836C13.1702 5.88484 13.2771 6.06756 13.4121 6.22118C13.6736 6.52208 14.3418 6.7077 14.7383 6.7077C15.1348 6.7077 15.803 6.52208 16.0645 6.22118C16.1995 6.06756 16.3064 5.88484 16.3792 5.6836C16.4519 5.48235 16.489 5.2666 16.4883 5.04885V4.46268H12.9883ZM8.7466 4.46268V5.04885C8.74587 5.2666 8.78295 5.48235 8.85571 5.6836C8.92846 5.88484 9.03544 6.06756 9.17043 6.22118C9.4319 6.52208 10.1001 6.7077 10.4966 6.7077C10.8931 6.7077 11.5613 6.52208 11.8228 6.22118C11.9578 6.06756 12.0647 5.88484 12.1375 5.6836C12.2102 5.48235 12.2473 5.2666 12.2466 5.04885V4.46268H8.7466ZM4.5049 4.46268V5.04885C4.50417 5.2666 4.54125 5.48235 4.61401 5.6836C4.68676 5.88484 4.79374 6.06756 4.92873 6.22118C5.1902 6.52208 5.85841 6.7077 6.2549 6.7077C6.65138 6.7077 7.3196 6.52208 7.58107 6.22118C7.71606 6.06756 7.82303 5.88484 7.89579 5.6836C7.96854 5.48235 8.00563 5.2666 8.0049 5.04885V4.46268H4.5049ZM18.1272 7.15709C17.9136 7.04377 17.3872 6.88746 17.2215 6.69793C17.0768 6.5321 16.9547 6.34242 16.8591 6.13521C16.7636 6.34242 16.6415 6.5321 16.4968 6.69793C16.1311 7.11606 15.3006 7.37398 14.7383 7.37398C14.176 7.37398 13.3489 7.11606 12.9883 6.69793C12.8436 6.5321 12.7215 6.34242 12.626 6.13521C12.5305 6.34242 12.4084 6.5321 12.2637 6.69793C11.898 7.11606 11.0674 7.37398 10.5051 7.37398C9.94289 7.37398 9.11232 7.11606 8.7466 6.69793C8.59829 6.53292 8.47268 6.3432 8.37404 6.13521C8.27853 6.34242 8.15641 6.5321 8.01173 6.69793C7.64601 7.11606 6.81544 7.37398 6.25319 7.37398C5.69093 7.37398 4.86037 7.11606 4.49464 6.69793C4.34997 6.5321 4.22785 6.34242 4.13234 6.13521C4.03683 6.34242 3.91471 6.5321 3.77003 6.69793C3.52907 6.97343 2.89503 7.17859 2.56007 7.2841C2.48716 7.29452 2.41196 7.30233 2.33449 7.30754V18.73C2.33466 18.7879 2.35495 18.8434 2.39088 18.8843C2.42752 18.9265 2.4773 18.9504 2.52931 18.9508H10.2197V11.0629C10.2206 10.5585 10.3963 10.075 10.7083 9.71837C11.0202 9.3617 11.4431 9.16086 11.8843 9.15983H14.6358C15.0767 9.16138 15.4991 9.36244 15.8107 9.71906C16.1223 10.0757 16.2977 10.5588 16.2986 11.0629V18.9527H18.4656C18.4911 18.9525 18.5163 18.9465 18.5398 18.9351C18.5632 18.9237 18.5845 18.9071 18.6023 18.8863C18.6375 18.845 18.6571 18.7896 18.657 18.7319V7.32317C18.657 7.30168 18.657 7.28019 18.657 7.26065C18.4781 7.23916 18.3006 7.20457 18.1255 7.15709H18.1272ZM10.9939 18.9527H15.5261V11.0629C15.5252 10.7927 15.431 10.5339 15.2639 10.3429C15.0968 10.1518 14.8704 10.044 14.634 10.043H11.886C11.6497 10.044 11.4233 10.1518 11.2562 10.3429C11.0891 10.5339 10.9948 10.7927 10.9939 11.0629V18.9527ZM5.12697 10.6135H7.87843C7.98103 10.6135 8.07944 10.66 8.15215 10.7427C8.22485 10.8255 8.26592 10.9378 8.26637 11.0551V15.7308C8.26637 15.8484 8.2255 15.9612 8.15275 16.0444C8.08 16.1276 7.98132 16.1743 7.87843 16.1743H5.12697C5.02408 16.1743 4.92541 16.1276 4.85265 16.0444C4.7799 15.9612 4.73903 15.8484 4.73903 15.7308V11.0551C4.73948 10.9378 4.78055 10.8255 4.85326 10.7427C4.92596 10.66 5.02438 10.6135 5.12697 10.6135ZM7.4922 11.4986H5.51149V15.2892H7.4922V11.4986ZM1.43043 7.22939C1.11522 7.14512 0.82585 6.96485 0.593032 6.7077C0.404175 6.49295 0.254503 6.23746 0.152703 5.95605C0.0509036 5.67464 -0.000996706 5.37291 1.44966e-05 5.06839V4.16178C0.000326734 4.11611 0.0102942 4.07119 0.0290672 4.03087L1.615 0.13482C1.63466 0.0938787 1.66361 0.0597511 1.69879 0.0360264C1.73398 0.0123018 1.77411 -0.000142955 1.81496 1.23895e-06H19.0586C19.1018 0.000156685 19.144 0.0141553 19.1806 0.0404058C19.2172 0.0666564 19.2465 0.104106 19.2654 0.148497L20.9744 4.02306C20.9939 4.0604 21.0051 4.10269 21.0069 4.14615C21.0077 4.15459 21.0077 4.16311 21.0069 4.17155V5.06643C21.0067 5.36932 20.9543 5.66919 20.8525 5.94884C20.7508 6.22848 20.6017 6.48239 20.4138 6.69598C20.1826 6.95538 19.8915 7.13428 19.5747 7.2118C19.5816 7.24774 19.585 7.28443 19.585 7.32122V18.73C19.5837 19.0662 19.4657 19.3881 19.2569 19.6249C19.1538 19.7432 19.0313 19.8371 18.8963 19.9011C18.7614 19.9651 18.6168 19.9981 18.4707 19.998H2.53444C2.38865 19.9978 2.24433 19.9648 2.10973 19.9007C1.97513 19.8367 1.8529 19.7429 1.75001 19.6249C1.6467 19.5077 1.56467 19.3683 1.50865 19.2147C1.45263 19.0611 1.42373 18.8964 1.4236 18.73V7.32317C1.42099 7.28872 1.42099 7.25407 1.4236 7.21962L1.43043 7.22939Z" fill="#FEF9F9"/>
</svg>
